<svg xmlns="http://www.w3.org/2000/svg" width="1920" height="1560" viewBox="0 0 1920 1560">
  <defs>
    <style>
      .cls-1, .cls-2 {
        fill: #bdc3c7;
      }

      .cls-2, .cls-3 {
        fill-rule: evenodd;
      }

      .cls-3 {
        fill: #2c3e50;
      }

      .cls-4 {
        fill: #f1c40f;
      }
    </style>
  </defs>
  <g id="Plan_de_travail_1" data-name="Plan de travail 1">
    <rect class="cls-1" x="180" y="1512" width="1692" height="18"/>
    <g id="stars">
      <path id="Forme_1" data-name="Forme 1" class="cls-2" d="M108,1584l11.864,22.63L144,1611.5l-16.8,18.86,3.05,25.64L108,1645.03,85.753,1656l3.049-25.64L72,1611.5l24.13-4.87L108,1584" transform="translate(0 -360)"/>
      <path id="Forme_2" data-name="Forme 2" class="cls-2" d="M108,1296l11.864,22.63L144,1323.5l-16.8,18.86,3.05,25.64L108,1357.03,85.753,1368l3.049-25.64L72,1323.5l24.13-4.87L108,1296" transform="translate(0 -360)"/>
      <path id="Forme_3" data-name="Forme 3" class="cls-2" d="M109,1008l11.864,22.63L145,1035.5l-16.8,18.86,3.05,25.64L109,1069.03,86.753,1080l3.049-25.64L73,1035.5l24.13-4.87L109,1008" transform="translate(0 -360)"/>
      <path id="Forme_4" data-name="Forme 4" class="cls-2" d="M109,720l11.864,22.626L145,747.5,128.2,766.36,131.247,792,109,781.026,86.753,792,89.8,766.36,73,747.5l24.13-4.874L109,720" transform="translate(0 -360)"/>
      <path id="Forme_5" data-name="Forme 5" class="cls-2" d="M108,432l11.864,22.626L144,459.5,127.2,478.36,130.247,504,108,493.026,85.753,504,88.8,478.36,72,459.5l24.13-4.874L108,432" transform="translate(0 -360)"/>
    </g>
    <g id="stars_label" data-name="stars label">
      <path id="_1" data-name="1" class="cls-3" d="M102.287,1638h12.676v-5.35h-3.125v-24.3l-2.832-.04-8.164,4.81v6.79l4.551-2.71v15.45h-3.106V1638Z" transform="translate(0 -360)"/>
      <path id="_2" data-name="2" class="cls-3" d="M98.977,1350h19.316v-6H107.258l8.437-9.12a12.185,12.185,0,0,0,1.924-2.82,7.262,7.262,0,0,0,.713-3.21,8.911,8.911,0,0,0-.781-3.83,8.08,8.08,0,0,0-2.119-2.79,9.206,9.206,0,0,0-3.086-1.72,11.532,11.532,0,0,0-3.682-.59,11.309,11.309,0,0,0-3.848.65,8.98,8.98,0,0,0-3.134,1.88,8.692,8.692,0,0,0-2.1,3.05,10.463,10.463,0,0,0-.762,4.11H104.7a4.6,4.6,0,0,1,.274-1.48,3.768,3.768,0,0,1,.732-1.24,3.479,3.479,0,0,1,1.191-.83,4.285,4.285,0,0,1,1.67-.3,3.637,3.637,0,0,1,1.436.27,3.224,3.224,0,0,1,1.074.7,3.051,3.051,0,0,1,.674.99,2.933,2.933,0,0,1,.234,1.13,5.268,5.268,0,0,1-.722,2.61,11.5,11.5,0,0,1-2.051,2.58l-10.234,10.88V1350Z" transform="translate(0 -360)"/>
      <path id="_3" data-name="3" class="cls-3" d="M112.34,1040.9a2.678,2.678,0,0,1-.713.98,3.361,3.361,0,0,1-1.143.64,4.551,4.551,0,0,1-1.533.24h-2.773v5.33h2.734a5.055,5.055,0,0,1,1.7.27,3.924,3.924,0,0,1,1.289.76,3.126,3.126,0,0,1,.811,1.15,3.694,3.694,0,0,1,.283,1.45,3.055,3.055,0,0,1-.322,1.39,3.653,3.653,0,0,1-.869,1.12,4.055,4.055,0,0,1-1.28.76,4.3,4.3,0,0,1-1.572.29,3.724,3.724,0,0,1-4.121-3.99H98.7a17.375,17.375,0,0,0,.166,2.15,8.549,8.549,0,0,0,.957,2.59,9.048,9.048,0,0,0,2.139,2.69,9.736,9.736,0,0,0,3.1,1.79,11.054,11.054,0,0,0,3.818.65,10.6,10.6,0,0,0,4.043-.77,10.166,10.166,0,0,0,3.252-2.06,9.5,9.5,0,0,0,2.158-3.01,8.709,8.709,0,0,0,.781-3.64,8.135,8.135,0,0,0-.986-3.92,7.259,7.259,0,0,0-1.064-1.49,5.351,5.351,0,0,0-1.309-1.03,6.79,6.79,0,0,0,2.129-2.51,7.858,7.858,0,0,0,.029-6.77,9.029,9.029,0,0,0-2.08-2.79,10.18,10.18,0,0,0-3.125-1.93,10.5,10.5,0,0,0-3.867-.71,10.107,10.107,0,0,0-3.965.76,9.246,9.246,0,0,0-3.037,2.07,9.566,9.566,0,0,0-1.963,3.03,9.729,9.729,0,0,0-.723,3.61l6.075,0.04a4.058,4.058,0,0,1,.293-1.82,3.158,3.158,0,0,1,.791-0.95,4,4,0,0,1,1.152-.65,3.753,3.753,0,0,1,1.377-.25,4,4,0,0,1,1.533.29,3.948,3.948,0,0,1,1.192.77,3.252,3.252,0,0,1,.761,1.05,2.824,2.824,0,0,1,.264,1.17A3.115,3.115,0,0,1,112.34,1040.9Z" transform="translate(0 -360)"/>
      <path id="_4" data-name="4" class="cls-3" d="M97.174,764.719H110.1v2.734h-2.813v5.352h12.7v-5.352h-3.769v-2.734h4.121v-4.961h-4.121v-5.8l-6.113.078v5.723h-6.25L114.225,743.2H107.7L97.174,759.719v5Z" transform="translate(0 -360)"/>
      <path id="_5" data-name="5" class="cls-3" d="M104.738,462.367H117.9v-5.976H99.094v15.761l5.293,0.977a11.141,11.141,0,0,1,1.884-.693,8.7,8.7,0,0,1,2.2-.245,4.57,4.57,0,0,1,1.816.352,4.427,4.427,0,0,1,1.406.937,4.135,4.135,0,0,1,1.211,2.911,5.112,5.112,0,0,1-.3,1.777,4.486,4.486,0,0,1-.85,1.436,3.883,3.883,0,0,1-1.328.966,4.132,4.132,0,0,1-1.719.352,4.44,4.44,0,0,1-1.572-.274,3.921,3.921,0,0,1-1.289-.781,4.294,4.294,0,0,1-.928-1.23,4.94,4.94,0,0,1-.488-1.641l-6.035,1.641a9.527,9.527,0,0,0,1.3,3.486,9.008,9.008,0,0,0,2.315,2.49,9.861,9.861,0,0,0,3.076,1.494,12.887,12.887,0,0,0,3.623.5,11.373,11.373,0,0,0,3.779-.644,9.866,9.866,0,0,0,3.291-1.914,9.446,9.446,0,0,0,2.325-3.154,10.229,10.229,0,0,0,.879-4.366,9.705,9.705,0,0,0-.8-4.062,8.733,8.733,0,0,0-2.158-2.959,9.245,9.245,0,0,0-3.145-1.817,11.53,11.53,0,0,0-3.779-.615,10.648,10.648,0,0,0-2.334.244,15.467,15.467,0,0,0-2.022.6v-5.547Z" transform="translate(0 -360)"/>
    </g>
    <g id="bar">
      <rect class="cls-4" x="216" y="72" width="180" height="1440"/>
      <rect class="cls-4" x="504" y="360" width="180" height="1152"/>
      <rect class="cls-4" x="792" y="648" width="180" height="864"/>
      <rect class="cls-4" x="1074" y="648" width="180" height="864"/>
      <rect class="cls-4" x="1368" y="360" width="180" height="1152"/>
      <rect class="cls-4" x="1653" y="360" width="180" height="1152"/>
    </g>
    <g id="software">
      <path id="PYTHON" class="cls-3" d="M326.584,555.518v7.666H279.367v-7.666H265.988v30.664h13.379V579.4h14.112v10.3a31.986,31.986,0,0,0,1.928,11.67,22.667,22.667,0,0,0,5.249,8.154,20.649,20.649,0,0,0,7.837,4.761,29.856,29.856,0,0,0,9.693,1.538,18.415,18.415,0,0,0,8.252-1.953,22.374,22.374,0,0,0,6.982-5.42,26.419,26.419,0,0,0,4.809-8.252,29.861,29.861,0,0,0,1.783-10.5V555.518H326.584Zm0,30.566q0,5.957-2.686,9.033a9.333,9.333,0,0,1-7.421,3.076q-5.079,0-7.422-3.271t-2.344-8.838V579.4h19.873v6.689Zm0,34.57v6.494l-29.688,20.7H279.367v-8.2H265.988v33.008h13.379v-8.984H296.7l29.883,22.021v5.469h13.428V659.473H326.584v7.08l-16.992-10.5,16.992-9.912v6.2h13.428v-31.69H326.584Zm-60.6,90.918v31.69h13.379v-7.813h47.7v10.205H317.5V761.67h22.51V694.336H317.5v15.918h9.57v8.984h-47.7v-7.666H265.988Zm60.6,106.69v7.715H311.2v-33.4h15.381v7.813h13.428V768.7H326.584v7.666H279.367V768.7H265.988v31.69h13.379v-7.813h18.946v33.4H279.367v-7.715H265.988V850h13.379v-7.812h47.217V850h13.428V818.262H326.584Zm-60.547,85.864a34.674,34.674,0,0,0,3.858,8.594,35.7,35.7,0,0,0,5.981,7.226,37.878,37.878,0,0,0,7.764,5.567,40.929,40.929,0,0,0,38.769,0,37.932,37.932,0,0,0,7.764-5.567,35.733,35.733,0,0,0,5.981-7.226,34.747,34.747,0,0,0,3.858-8.594,34.614,34.614,0,0,0,0-19.263,34.825,34.825,0,0,0-3.858-8.569,35.684,35.684,0,0,0-5.981-7.227,37.19,37.19,0,0,0-7.764-5.542A40.937,40.937,0,0,0,303,858.691a40.366,40.366,0,0,0-10.2,1.27,41.1,41.1,0,0,0-9.155,3.564,37.137,37.137,0,0,0-7.764,5.542,35.651,35.651,0,0,0-5.981,7.227,34.751,34.751,0,0,0-3.858,8.569A34.614,34.614,0,0,0,266.037,904.126Zm15.8-17.358a18.961,18.961,0,0,1,4.98-6.055,24.036,24.036,0,0,1,7.325-3.98,26.986,26.986,0,0,1,8.862-1.44,27.365,27.365,0,0,1,8.936,1.44,23.974,23.974,0,0,1,7.348,3.98,18.951,18.951,0,0,1,4.981,6.055,17.167,17.167,0,0,1,0,15.429,19.224,19.224,0,0,1-4.981,6.079,23.335,23.335,0,0,1-7.348,3.98,28.9,28.9,0,0,1-17.8.024,23.268,23.268,0,0,1-7.325-3.93,18.9,18.9,0,0,1-4.98-6.079A16.7,16.7,0,0,1,280,894.482,16.437,16.437,0,0,1,281.833,886.768Zm44.751,100.1v6.3H291.525l48.487-30.615V940.186H326.584v6H279.367v-6.1H265.988v28.076h13.379v-6.2H313.84l-47.852,30.81v16.207h60.6v6.01h13.428V986.865H326.584Z" transform="translate(0 -360)"/>
      <path id="R" class="cls-3" d="M607.6,866.811v7.666H560.379v-7.666H547v30.664h13.379v-6.787h16.113v6.3a17.283,17.283,0,0,1-.683,5.152,9.34,9.34,0,0,1-2.124,3.686,10.3,10.3,0,0,1-3.711,2.417,23.555,23.555,0,0,1-5.4,1.343L547,912.514V934l14.4-.1v-6.1l9.619-2.49a18.671,18.671,0,0,0,6.763-2.881,12.5,12.5,0,0,0,3.882-4.4,29.782,29.782,0,0,0,3.052,5.127,17.092,17.092,0,0,0,3.882,3.784,16.6,16.6,0,0,0,5.029,2.344,24.19,24.19,0,0,0,6.592.806,19.77,19.77,0,0,0,14.526-6.348,22.985,22.985,0,0,0,4.565-7.568,28.539,28.539,0,0,0,1.709-10.205v-39.16H607.6Zm0,33.593q0,5.957-2.393,9.034a7.994,7.994,0,0,1-6.689,3.076,8.546,8.546,0,0,1-3.955-.855,7.491,7.491,0,0,1-2.759-2.441,10.941,10.941,0,0,1-1.612-3.809,22.371,22.371,0,0,1-.512-5v-9.716H607.6V900.4Z" transform="translate(0 -360)"/>
      <path id="SAS" class="cls-3" d="M897.865,1193.11v17.68h14.746v-4.88a17.8,17.8,0,0,0,4.712-3.25,22.164,22.164,0,0,0,4.029-5.18,28.91,28.91,0,0,0,2.807-6.91,31.864,31.864,0,0,0,1.05-8.39,36.367,36.367,0,0,0-1.465-10.6,24.429,24.429,0,0,0-4.3-8.35,19.581,19.581,0,0,0-6.958-5.47,21.745,21.745,0,0,0-9.4-1.95,22.794,22.794,0,0,0-8.081,1.34,20.68,20.68,0,0,0-6.177,3.61,21.188,21.188,0,0,0-4.394,5.23,28.072,28.072,0,0,0-2.735,6.13l-3.613,11.18c-0.326,1.01-.684,2.03-1.074,3.08a13.771,13.771,0,0,1-1.441,2.83,7.258,7.258,0,0,1-2.1,2.07,5.574,5.574,0,0,1-3.1.81,7.134,7.134,0,0,1-5.64-2.3q-2.027-2.3-2.026-6.69a15.165,15.165,0,0,1,.757-5.03,9.624,9.624,0,0,1,2.124-3.56,8.774,8.774,0,0,1,3.223-2.12,11.1,11.1,0,0,1,4.052-.71h3.028V1154H861.2v5.03a18.98,18.98,0,0,0-5.688,3.66,23.666,23.666,0,0,0-4.321,5.47,26.766,26.766,0,0,0-2.759,6.91,35.042,35.042,0,0,0,.8,19.07,25.306,25.306,0,0,0,4.932,8.54,22.105,22.105,0,0,0,7.617,5.55,24,24,0,0,0,9.815,1.97,23.25,23.25,0,0,0,7.129-1.02,19.871,19.871,0,0,0,5.615-2.81,18.121,18.121,0,0,0,4.15-4.22,21.507,21.507,0,0,0,2.686-5.23l4.492-13.43q0.587-1.71,1.074-3.51a14.535,14.535,0,0,1,1.319-3.3,7.61,7.61,0,0,1,2.124-2.44,5.8,5.8,0,0,1,3.491-.95,6.038,6.038,0,0,1,3.027.71,5.921,5.921,0,0,1,2.075,1.9,8.608,8.608,0,0,1,1.2,2.81,14.692,14.692,0,0,1,.39,3.47,12.394,12.394,0,0,1-2.368,7.3,9.671,9.671,0,0,1-2.612,2.44,8.193,8.193,0,0,1-3.223,1.19h-4.3Zm-48.877,63.28v28.08h13.379v-5.37l60.645-19.73v-19.58l-60.645-20.16v-5.52H848.988v28.08h13.379v-7.82l10.645,3.32v22.76l-10.645,3.32v-7.38H848.988Zm60.6-7.42-24.072,7.52v-14.94Zm-11.719,77.74v17.67h14.746v-4.88a17.8,17.8,0,0,0,4.712-3.25,22.1,22.1,0,0,0,4.029-5.17,29.253,29.253,0,0,0,2.807-6.91,31.887,31.887,0,0,0,1.05-8.4,36.464,36.464,0,0,0-1.465-10.6,24.521,24.521,0,0,0-4.3-8.35,19.555,19.555,0,0,0-6.958-5.46,21.6,21.6,0,0,0-9.4-1.96,22.568,22.568,0,0,0-8.081,1.35,20.267,20.267,0,0,0-6.177,3.61,20.961,20.961,0,0,0-4.394,5.22,28.072,28.072,0,0,0-2.735,6.13l-3.613,11.18c-0.326,1.01-.684,2.04-1.074,3.08a13.771,13.771,0,0,1-1.441,2.83,7.294,7.294,0,0,1-2.1,2.08,5.655,5.655,0,0,1-3.1.8,7.128,7.128,0,0,1-5.64-2.29q-2.027-2.3-2.026-6.69a15.123,15.123,0,0,1,.757-5.03,9.749,9.749,0,0,1,2.124-3.57,8.774,8.774,0,0,1,3.223-2.12,11.313,11.313,0,0,1,4.052-.71h3.028V1287.6H861.2v5.03a18.6,18.6,0,0,0-5.688,3.66,23.251,23.251,0,0,0-4.321,5.47,26.624,26.624,0,0,0-2.759,6.91,35.006,35.006,0,0,0,.8,19.06,25.45,25.45,0,0,0,4.932,8.55,22.208,22.208,0,0,0,7.617,5.54,23.842,23.842,0,0,0,9.815,1.98,22.942,22.942,0,0,0,7.129-1.03,19.612,19.612,0,0,0,5.615-2.81,17.743,17.743,0,0,0,4.15-4.22,21.625,21.625,0,0,0,2.686-5.22l4.492-13.43c0.391-1.14.748-2.31,1.074-3.52a14.453,14.453,0,0,1,1.319-3.29,7.542,7.542,0,0,1,2.124-2.45,5.8,5.8,0,0,1,3.491-.95,6.144,6.144,0,0,1,3.027.71,5.949,5.949,0,0,1,2.075,1.91,8.552,8.552,0,0,1,1.2,2.8,14.753,14.753,0,0,1,.39,3.47,12.394,12.394,0,0,1-2.368,7.3,9.517,9.517,0,0,1-2.612,2.44,8.211,8.211,0,0,1-3.223,1.2h-4.3Z" transform="translate(0 -360)"/>
      <path id="RUBY" class="cls-3" d="M1194.6,1151.91v7.67h-47.22v-7.67H1134v30.67h13.38v-6.79h16.11v6.3a17.42,17.42,0,0,1-.68,5.15,9.384,9.384,0,0,1-2.13,3.69,10.159,10.159,0,0,1-3.71,2.41,23.418,23.418,0,0,1-5.39,1.35l-17.58,2.93v21.48l14.4-.1v-6.1l9.62-2.49a18.694,18.694,0,0,0,6.77-2.88,12.551,12.551,0,0,0,3.88-4.4,29.707,29.707,0,0,0,3.05,5.13,17.2,17.2,0,0,0,3.88,3.79,16.858,16.858,0,0,0,5.03,2.34,24.1,24.1,0,0,0,6.59.81,19.8,19.8,0,0,0,14.53-6.35,23.1,23.1,0,0,0,4.56-7.57,28.575,28.575,0,0,0,1.71-10.21v-39.16H1194.6Zm0,33.6q0,5.955-2.4,9.03a7.985,7.985,0,0,1-6.69,3.08,8.5,8.5,0,0,1-3.95-.86,7.426,7.426,0,0,1-2.76-2.44,10.988,10.988,0,0,1-1.61-3.81,22.421,22.421,0,0,1-.51-5v-9.72h17.92v9.72Zm0,38.08v6.69h-29.69a37.393,37.393,0,0,0-13.38,2.25,29.971,29.971,0,0,0-10.03,6.13,25.949,25.949,0,0,0-6.3,9.1,28.966,28.966,0,0,0-2.18,11.23,29.481,29.481,0,0,0,2.2,11.36,26.488,26.488,0,0,0,6.4,9.23,30.057,30.057,0,0,0,10.28,6.17,39.832,39.832,0,0,0,13.89,2.25h28.81v5.91h13.42v-29.69H1194.6v7.86h-30.72a26.3,26.3,0,0,1-7.47-.9,11.967,11.967,0,0,1-4.76-2.59,9.251,9.251,0,0,1-2.51-4.05,17.666,17.666,0,0,1-.74-5.25,14.845,14.845,0,0,1,.86-5.13,10.163,10.163,0,0,1,2.71-4.05,12.728,12.728,0,0,1,4.78-2.66,23.117,23.117,0,0,1,7.13-.96h30.72v6.79h13.42v-29.69H1194.6Zm-60.6,79.25V1340a23.112,23.112,0,0,0,1.68,8.84,21.268,21.268,0,0,0,4.74,7.1,22.448,22.448,0,0,0,7.25,4.74,24.082,24.082,0,0,0,9.23,1.73,15.671,15.671,0,0,0,8.37-2.12,18.186,18.186,0,0,0,5.79-5.79,14.751,14.751,0,0,0,5.66,5.35,18.8,18.8,0,0,0,8.89,1.88,22.368,22.368,0,0,0,8.67-1.69,21.832,21.832,0,0,0,7.13-4.71,22.558,22.558,0,0,0,4.83-7.2,23.151,23.151,0,0,0,1.78-9.2l0.1-36.09H1194.6v7.57h-47.22v-7.57H1134Zm30.62,36.09a5.5,5.5,0,0,1-.66,2.61,7.07,7.07,0,0,1-1.81,2.17,8.938,8.938,0,0,1-2.69,1.47,10.259,10.259,0,0,1-3.34.53,10.461,10.461,0,0,1-3.3-.53,10.013,10.013,0,0,1-2.78-1.44,7.438,7.438,0,0,1-1.93-2.15,5.15,5.15,0,0,1-.73-2.66v-12.31h17.24v12.31Zm29.98-.69a4.876,4.876,0,0,1-.76,2.59,7.8,7.8,0,0,1-1.98,2.12,9.882,9.882,0,0,1-2.73,1.44,8.973,8.973,0,0,1-3.03.54,8.474,8.474,0,0,1-3-.54,9.082,9.082,0,0,1-2.59-1.44,6.96,6.96,0,0,1-1.83-2.12,5.181,5.181,0,0,1-.69-2.59v-11.62h16.61v11.62Zm0,29.05v6.5l-29.69,20.7h-17.53v-8.2H1134v33.01h13.38v-8.99h17.33l29.89,22.02v5.47h13.42v-31.69H1194.6v7.08l-17-10.49,17-9.92v6.2h13.42v-31.69H1194.6Z" transform="translate(0 -360)"/>
      <path id="SQL_NoSQL" data-name="SQL               NoSQL" class="cls-3" d="M1462.48,902.51v17.676h14.75V915.3a18.091,18.091,0,0,0,4.71-3.247,22.507,22.507,0,0,0,4.03-5.176,29.175,29.175,0,0,0,2.8-6.909,31.9,31.9,0,0,0,1.05-8.4,36.287,36.287,0,0,0-1.46-10.6,24.479,24.479,0,0,0-4.3-8.35,19.59,19.59,0,0,0-6.96-5.469,21.689,21.689,0,0,0-9.39-1.953,22.7,22.7,0,0,0-8.09,1.343,20.5,20.5,0,0,0-6.17,3.613,21.016,21.016,0,0,0-4.4,5.225,28.127,28.127,0,0,0-2.73,6.128l-3.61,11.181q-0.495,1.513-1.08,3.076a13.57,13.57,0,0,1-1.44,2.833,7.292,7.292,0,0,1-2.1,2.075,5.587,5.587,0,0,1-3.1.805,7.128,7.128,0,0,1-5.64-2.3q-2.025-2.295-2.03-6.689a15.248,15.248,0,0,1,.76-5.029,9.637,9.637,0,0,1,2.13-3.565,8.723,8.723,0,0,1,3.22-2.124,11.254,11.254,0,0,1,4.05-.708h3.03V863.4h-14.7v5.03a18.918,18.918,0,0,0-5.69,3.662,23.51,23.51,0,0,0-4.32,5.469,27.106,27.106,0,0,0-2.76,6.909,35.029,35.029,0,0,0,.81,19.067,25.284,25.284,0,0,0,4.93,8.545,21.99,21.99,0,0,0,7.62,5.542,23.849,23.849,0,0,0,9.81,1.978,23.126,23.126,0,0,0,7.13-1.026,19.752,19.752,0,0,0,5.62-2.807,18.121,18.121,0,0,0,4.15-4.224,21.74,21.74,0,0,0,2.68-5.225l4.49-13.427q0.585-1.71,1.08-3.516a13.981,13.981,0,0,1,1.32-3.3,7.508,7.508,0,0,1,2.12-2.441,5.767,5.767,0,0,1,3.49-.952,6.136,6.136,0,0,1,3.03.708,5.937,5.937,0,0,1,2.07,1.9,8.538,8.538,0,0,1,1.2,2.807,14.715,14.715,0,0,1,.39,3.467,12.293,12.293,0,0,1-.63,3.931,12.489,12.489,0,0,1-1.74,3.369,9.472,9.472,0,0,1-2.61,2.441,8.172,8.172,0,0,1-3.22,1.2h-4.3Zm-61.77,51.758a8.733,8.733,0,0,1,.61,2.929,11.946,11.946,0,0,1,0,1.2c-0.01.406-.02,0.87-0.02,1.391a10.363,10.363,0,0,1-1.1,4.2q-1.1,2.392-2.39,5.1t-2.39,5.615a16.1,16.1,0,0,0-1.1,5.786,20.027,20.027,0,0,0,1.12,6.739,18.763,18.763,0,0,0,3.17,5.664,16.9,16.9,0,0,0,4.93,4.077,17.793,17.793,0,0,0,6.45,2.026l5.42-10.889a8.129,8.129,0,0,1-3.22-1.147,7.725,7.725,0,0,1-2.15-2.026,8.262,8.262,0,0,1-1.22-2.613,10.269,10.269,0,0,1,.12-6.006,29.377,29.377,0,0,1,1.12-3c0.44-1.01.92-2.011,1.42-3s0.97-2,1.39-3a33.575,33.575,0,0,0,4.49,11.865,36.245,36.245,0,0,0,8.4,9.448,39.332,39.332,0,0,0,11.38,6.226,40.093,40.093,0,0,0,13.48,2.246,40.662,40.662,0,0,0,10.22-1.27,40.067,40.067,0,0,0,9.18-3.589,37.967,37.967,0,0,0,7.77-5.566,35.607,35.607,0,0,0,5.98-7.227,34.656,34.656,0,0,0,3.86-8.593,34.785,34.785,0,0,0,0-19.263,34.74,34.74,0,0,0-3.86-8.569,35.58,35.58,0,0,0-5.98-7.227,37.228,37.228,0,0,0-7.77-5.542,41.545,41.545,0,0,0-32.71-2.661,38.992,38.992,0,0,0-11.26,6.055,36.507,36.507,0,0,0-8.37,9.179,33.544,33.544,0,0,0-4.66,11.548Zm28.74-.782a18.942,18.942,0,0,1,4.98-6.054,24.057,24.057,0,0,1,7.32-3.98,27.043,27.043,0,0,1,8.87-1.44,27.36,27.36,0,0,1,8.93,1.44,23.984,23.984,0,0,1,7.35,3.98,18.942,18.942,0,0,1,4.98,6.054,17.178,17.178,0,0,1,0,15.43A19.207,19.207,0,0,1,1466.9,975a23.345,23.345,0,0,1-7.35,3.98,28.911,28.911,0,0,1-17.8.024,23.288,23.288,0,0,1-7.32-3.931,18.862,18.862,0,0,1-4.98-6.079,16.7,16.7,0,0,1-1.83-7.788A16.455,16.455,0,0,1,1429.45,953.486Zm44.75,54v7.67h-47.22v-7.67H1413.6v59.18h27.2v-15.82h-9.91a3.466,3.466,0,0,1-1.32-.29,5.627,5.627,0,0,1-1.27-.76,4,4,0,0,1-.95-1.07,2.378,2.378,0,0,1-.37-1.25v-16.11h47.22v7.81h13.43v-31.69H1474.2Zm0,412.79v6.3h-35.06l48.49-30.61V1373.6H1474.2v6.01h-47.22v-6.1H1413.6v28.07h13.38v-6.2h34.48l-47.86,30.81v16.21h60.6v6.01h13.43v-28.13H1474.2Zm-45.53,36.06a25.22,25.22,0,0,0-14.19,13.92,30.043,30.043,0,0,0,0,22.07,25.254,25.254,0,0,0,14.24,13.96,27.708,27.708,0,0,0,10.37,1.93,27.2,27.2,0,0,0,10.35-1.97,25.678,25.678,0,0,0,14.16-14.07,29.079,29.079,0,0,0,0-21.7,25.786,25.786,0,0,0-14.16-14.06,26.666,26.666,0,0,0-10.35-2.01A28.093,28.093,0,0,0,1428.67,1456.34Zm15.89,13.65a12.386,12.386,0,0,1,4.15,2.66,11.473,11.473,0,0,1,2.61,3.91,11.813,11.813,0,0,1,.86,4.76,11.961,11.961,0,0,1-.86,4.81,11.086,11.086,0,0,1-2.61,3.86,12.173,12.173,0,0,1-4.15,2.56,15.272,15.272,0,0,1-5.47.93,14.747,14.747,0,0,1-5.34-.93,12.709,12.709,0,0,1-4.18-2.56,11.492,11.492,0,0,1-2.71-3.86,12.178,12.178,0,0,1-.95-4.81,11.713,11.713,0,0,1,.97-4.76,12.289,12.289,0,0,1,2.74-3.91,13,13,0,0,1,4.17-2.66,14.081,14.081,0,0,1,5.3-.98A14.641,14.641,0,0,1,1444.56,1469.99Zm17.92,82.81v17.68h14.75v-4.88a18.278,18.278,0,0,0,4.71-3.25,22.49,22.49,0,0,0,4.03-5.18,29.114,29.114,0,0,0,2.8-6.91,31.864,31.864,0,0,0,1.05-8.39,36.269,36.269,0,0,0-1.46-10.6,24.469,24.469,0,0,0-4.3-8.35,19.614,19.614,0,0,0-6.96-5.47,21.717,21.717,0,0,0-9.39-1.95,22.833,22.833,0,0,0-8.09,1.34,20.681,20.681,0,0,0-6.17,3.61,21.147,21.147,0,0,0-4.4,5.23,28.1,28.1,0,0,0-2.73,6.13l-3.61,11.18c-0.33,1.01-.69,2.03-1.08,3.07a13.506,13.506,0,0,1-1.44,2.84,7.39,7.39,0,0,1-2.1,2.07,5.564,5.564,0,0,1-3.1.81,7.132,7.132,0,0,1-5.64-2.3q-2.025-2.3-2.03-6.69a15.292,15.292,0,0,1,.76-5.03,9.607,9.607,0,0,1,2.13-3.56,8.616,8.616,0,0,1,3.22-2.12,11.085,11.085,0,0,1,4.05-.71h3.03v-17.68h-14.7v5.03a18.989,18.989,0,0,0-5.69,3.66,23.769,23.769,0,0,0-4.32,5.47,27.128,27.128,0,0,0-2.76,6.91,35.04,35.04,0,0,0,.81,19.07,25.2,25.2,0,0,0,4.93,8.54,21.986,21.986,0,0,0,7.62,5.55,23.976,23.976,0,0,0,9.81,1.97,23.252,23.252,0,0,0,7.13-1.02,19.862,19.862,0,0,0,5.62-2.81,18.26,18.26,0,0,0,4.15-4.22,21.736,21.736,0,0,0,2.68-5.23l4.49-13.43q0.585-1.71,1.08-3.51a13.876,13.876,0,0,1,1.32-3.3,7.6,7.6,0,0,1,2.12-2.44,5.8,5.8,0,0,1,3.49-.95,6.062,6.062,0,0,1,3.03.71,5.9,5.9,0,0,1,2.07,1.9,8.527,8.527,0,0,1,1.2,2.81,14.692,14.692,0,0,1,.39,3.47,12.346,12.346,0,0,1-.63,3.93,12.644,12.644,0,0,1-1.74,3.37,9.605,9.605,0,0,1-2.61,2.44,8.174,8.174,0,0,1-3.22,1.19h-4.3Zm-61.77,51.76a8.794,8.794,0,0,1,.61,2.93q0.03,0.585,0,1.2c-0.01.4-.02,0.87-0.02,1.39a10.4,10.4,0,0,1-1.1,4.2q-1.1,2.385-2.39,5.1t-2.39,5.62a16.045,16.045,0,0,0-1.1,5.78,20.029,20.029,0,0,0,1.12,6.74,18.671,18.671,0,0,0,3.17,5.66,16.944,16.944,0,0,0,4.93,4.08,17.874,17.874,0,0,0,6.45,2.03l5.42-10.89a8.193,8.193,0,0,1-3.22-1.15,7.609,7.609,0,0,1-2.15-2.03,8.226,8.226,0,0,1-1.22-2.61,10.249,10.249,0,0,1,.12-6,29.068,29.068,0,0,1,1.12-3.01c0.44-1.01.92-2.01,1.42-3s0.97-1.99,1.39-3a33.536,33.536,0,0,0,4.49,11.86,36.126,36.126,0,0,0,8.4,9.45,39.461,39.461,0,0,0,11.38,6.23,41.713,41.713,0,0,0,23.7.97,39.573,39.573,0,0,0,9.18-3.59,37.865,37.865,0,0,0,7.77-5.56,35.843,35.843,0,0,0,5.98-7.23,34.685,34.685,0,0,0,3.86-8.59,33.844,33.844,0,0,0,1.36-9.65,33.468,33.468,0,0,0-1.36-9.61,34.549,34.549,0,0,0-3.86-8.57,35.3,35.3,0,0,0-5.98-7.23,37.037,37.037,0,0,0-7.77-5.54,40.848,40.848,0,0,0-19.4-4.84,40.342,40.342,0,0,0-13.31,2.18,38.741,38.741,0,0,0-11.26,6.05,36.579,36.579,0,0,0-8.37,9.18,33.515,33.515,0,0,0-4.66,11.55Zm28.74-.78a19.083,19.083,0,0,1,4.98-6.06,23.886,23.886,0,0,1,7.32-3.97,26.787,26.787,0,0,1,8.87-1.45,27.1,27.1,0,0,1,8.93,1.45,23.816,23.816,0,0,1,7.35,3.97,19.083,19.083,0,0,1,4.98,6.06,17.178,17.178,0,0,1,0,15.43,19.266,19.266,0,0,1-4.98,6.08,23.426,23.426,0,0,1-7.35,3.98,28.99,28.99,0,0,1-17.8.02,23.387,23.387,0,0,1-7.32-3.93,18.834,18.834,0,0,1-4.98-6.08,16.689,16.689,0,0,1-1.83-7.79A16.423,16.423,0,0,1,1429.45,1603.78Zm44.75,54v7.67h-47.22v-7.67H1413.6v59.18h27.2v-15.82h-9.91a3.466,3.466,0,0,1-1.32-.29,5.627,5.627,0,0,1-1.27-.76,3.855,3.855,0,0,1-.95-1.07,2.352,2.352,0,0,1-.37-1.25v-16.11h47.22v7.81h13.43v-31.69H1474.2Z" transform="translate(0 -360)"/>
      <path id="PHP" class="cls-3" d="M1759.79,860.326v7.666h-47.22v-7.666h-13.38V890.99h13.38V884.2h14.11v10.3a31.9,31.9,0,0,0,1.93,11.67,22.785,22.785,0,0,0,5.25,8.154,20.575,20.575,0,0,0,7.84,4.761,29.865,29.865,0,0,0,9.69,1.538,18.442,18.442,0,0,0,8.25-1.953,22.347,22.347,0,0,0,6.98-5.42,26.432,26.432,0,0,0,4.81-8.252,29.824,29.824,0,0,0,1.78-10.5v-34.18h-13.42Zm0,30.567q0,5.957-2.69,9.033a9.327,9.327,0,0,1-7.42,3.076q-5.085,0-7.42-3.272c-1.56-2.181-2.35-5.126-2.35-8.837V884.2h19.88v6.69Zm0,87.353v7.715h-15.38v-33.4h15.38v7.812h13.42V928.686h-13.42v7.666h-47.22v-7.666h-13.38v31.689h13.38v-7.812h18.95v33.4h-18.95v-7.715h-13.38v31.734h13.38v-7.81h47.22v7.81h13.42V978.246h-13.42Zm0,42.724v7.67h-47.22v-7.67h-13.38v30.66h13.38v-6.78h14.11v10.3a31.915,31.915,0,0,0,1.93,11.67,22.671,22.671,0,0,0,5.25,8.15,20.631,20.631,0,0,0,7.84,4.77,30,30,0,0,0,9.69,1.53,18.452,18.452,0,0,0,8.25-1.95,22.317,22.317,0,0,0,6.98-5.42,26.4,26.4,0,0,0,4.81-8.25,29.823,29.823,0,0,0,1.78-10.5v-34.18h-13.42Zm0,30.57q0,5.955-2.69,9.03a9.333,9.333,0,0,1-7.42,3.08q-5.085,0-7.42-3.27c-1.56-2.19-2.35-5.13-2.35-8.84v-6.69h19.88v6.69Z" transform="translate(0 -360)"/>
    </g>
  </g>
</svg>
